<?xml version="1.0" standalone="no"?>
<!DOCTYPE svg PUBLIC "-//W3C//DTD SVG 20010904//EN"
        "http://www.w3.org/TR/2001/REC-SVG-20010904/DTD/svg10.dtd">
<svg version="1.0" xmlns="http://www.w3.org/2000/svg"
     width="700.000000pt" height="700.000000pt" viewBox="0 0 700.000000 700.000000"
     preserveAspectRatio="xMidYMid meet">
    <metadata>
        Created by potrace 1.11, written by Peter Selinger 2001-2013
    </metadata>
    <g transform="translate(0.000000,700.000000) scale(0.100000,-0.100000)"
       fill="#000000" stroke="none">
        <path d="M5024 4985 c-280 -41 -539 -147 -754 -307 -147 -110 -311 -297 -408
-463 -172 -298 -252 -684 -222 -1065 35 -437 178 -755 455 -1011 406 -375
1001 -527 1631 -418 307 53 628 161 776 261 l47 32 3 566 c4 500 6 571 21 617
30 89 87 131 210 154 34 6 72 13 85 15 18 4 22 11 22 44 l0 40 -615 0 -615 0
0 -39 c0 -45 10 -51 76 -51 55 0 189 -27 224 -45 76 -40 106 -109 120 -275 14
-163 13 -865 -1 -915 -23 -84 -148 -165 -326 -212 -120 -31 -370 -43 -505 -24
-617 88 -987 517 -1058 1230 -42 423 60 912 253 1214 47 73 164 196 246 258
370 278 919 291 1276 29 69 -50 171 -152 226 -225 40 -54 125 -214 176 -332
l32 -73 57 0 56 0 -6 118 c-3 64 -11 245 -16 402 -5 157 -13 331 -16 388 l-6
102 -53 0 c-45 0 -55 -3 -60 -21 -11 -33 -65 -89 -108 -111 -64 -32 -147 -27
-302 21 -271 84 -443 112 -674 110 -86 -1 -197 -7 -247 -14z"/>
        <path d="M1667 4983 c-3 -5 -230 -539 -505 -1188 -529 -1250 -595 -1402 -693
-1597 -130 -259 -200 -329 -356 -353 l-43 -7 0 -44 0 -44 480 0 480 0 0 44 0
43 -76 7 c-225 20 -289 108 -235 317 11 41 69 198 128 349 l109 275 631 3 631
2 120 -282 c128 -301 164 -409 166 -499 2 -104 -52 -143 -221 -159 -54 -5
-101 -10 -105 -10 -5 0 -8 -20 -8 -45 l0 -45 615 0 615 0 0 43 0 44 -81 16
c-99 19 -145 49 -204 131 -72 102 -134 237 -739 1617 -321 734 -590 1346 -597
1362 -11 24 -18 27 -60 27 -26 0 -50 -3 -52 -7z m207 -1339 l274 -649 -273 -3
c-151 -1 -399 -1 -553 0 l-279 3 263 630 c302 723 283 679 289 673 3 -2 128
-297 279 -654z"/>
    </g>
</svg>
