<?xml version="1.0" encoding="UTF-8" standalone="no"?>
<svg
   xmlns:dc="http://purl.org/dc/elements/1.1/"
   xmlns:cc="http://creativecommons.org/ns#"
   xmlns:rdf="http://www.w3.org/1999/02/22-rdf-syntax-ns#"
   xmlns:svg="http://www.w3.org/2000/svg"
   xmlns="http://www.w3.org/2000/svg"
   xmlns:xlink="http://www.w3.org/1999/xlink"
   xmlns:sodipodi="http://sodipodi.sourceforge.net/DTD/sodipodi-0.dtd"
   xmlns:inkscape="http://www.inkscape.org/namespaces/inkscape"
   width="340"
   height="190.00006"
   enable-background="new 0 0 300 300"
   version="1.1"
   viewBox="0 0 340 190.00006"
   xml:space="preserve"
   id="svg170"
   sodipodi:docname="donate-paypal-4-font-CAPITALS.svg"
   inkscape:version="0.92.2 (5c3e80d, 2017-08-06)"><sodipodi:namedview
     pagecolor="#ffffff"
     bordercolor="#666666"
     borderopacity="1"
     objecttolerance="10"
     gridtolerance="10"
     guidetolerance="10"
     inkscape:pageopacity="0"
     inkscape:pageshadow="2"
     inkscape:window-width="2560"
     inkscape:window-height="1377"
     id="namedview172"
     showgrid="false"
     fit-margin-top="0"
     fit-margin-left="0"
     fit-margin-right="0"
     fit-margin-bottom="0.3"
     inkscape:zoom="1.5750457"
     inkscape:cx="218.01258"
     inkscape:cy="50.529846"
     inkscape:window-x="-8"
     inkscape:window-y="-8"
     inkscape:window-maximized="1"
     inkscape:current-layer="g649" /><metadata
     id="metadata2"><rdf:RDF><cc:Work
         rdf:about=""><dc:format>image/svg+xml</dc:format><dc:type
           rdf:resource="http://purl.org/dc/dcmitype/StillImage" /><dc:title></dc:title></cc:Work></rdf:RDF></metadata><defs
     id="defs11"><clipPath
       id="clipPath16"><path
         d="M 0,51 H 157 V 0 H 0 Z"
         id="path4"
         inkscape:connector-curvature="0" /></clipPath><radialGradient
       id="radialGradient1776"
       cx="-228.08"
       cy="55.944"
       r="264.57999"
       gradientTransform="matrix(0.4172,0,0,0.4172,66.624,242.3)"
       gradientUnits="userSpaceOnUse"
       xlink:href="#SVGID_1_" /><clipPath
       id="clipPath4157"><path
         d="M 0,792 H 612 V 0 H 0 Z"
         id="path8"
         inkscape:connector-curvature="0" /></clipPath></defs><radialGradient
     id="SVGID_1_"
     cx="57.388"
     cy="57.021"
     r="264.57999"
     gradientTransform="matrix(0.4172,0,0,0.4172,-205.5,-487.19)"
     gradientUnits="userSpaceOnUse"><stop
       stop-color="#9DD5F6"
       offset="0"
       id="stop13" /><stop
       stop-color="#98D3F5"
       offset=".0711"
       id="stop15" /><stop
       stop-color="#89CEF3"
       offset=".1575"
       id="stop17" /><stop
       stop-color="#70C6EF"
       offset=".2516"
       id="stop19" /><stop
       stop-color="#4EBBEA"
       offset=".3514"
       id="stop21" /><stop
       stop-color="#23ADE3"
       offset=".4546"
       id="stop23" /><stop
       stop-color="#0DA6E0"
       offset=".5"
       id="stop25" /><stop
       stop-color="#2E77BC"
       offset="1"
       id="stop27" /></radialGradient><style
     id="style30">.st0{fill:url(#SVGID_1_)}.st1{fill:none}.st2{fill:#036}</style><g
     id="g649"
     transform="translate(0,-0.29994754)"><rect
       style="fill:#ffc438;fill-rule:evenodd;stroke-width:1.33027971"
       x="0"
       id="rect72"
       ry="7.426002"
       rx="7.4601331"
       height="65.272003"
       width="340"
       y="124.72801" /><g
       id="g80"
       transform="matrix(0.39350873,0,0,0.39350873,79.622121,256.34477)"><defs
         id="defs75"><path
           inkscape:connector-curvature="0"
           d="M 289.58,7.598 H 7.64 v 282.97 h 281.94 v -93.386 c 1.12,-1.619 1.673,-3.69 1.673,-6.222 0,-2.898 -0.553,-4.693 -1.673,-6.205"
           id="SVGID_2_" /></defs><clipPath
         id="SVGID_3_"><use
           y="0"
           x="0"
           style="overflow:visible"
           id="use77"
           xlink:href="#SVGID_2_"
           overflow="visible"
           height="100%"
           width="100%" /></clipPath></g><g
       aria-label="DONATE"
       style="font-size:8.08803463px;line-height:13.47998142px;font-family:sans-serif;letter-spacing:0px;word-spacing:0px;opacity:0.98999999;fill:#000000;stroke-width:0.53919792px"
       id="text84"><path
         d="m 122.28706,167.24234 v -20.13049 h 6.38424 q 2.21435,0 3.76727,0.7477 1.58169,0.74771 2.44442,2.15684 0.89149,1.38038 1.26535,3.13461 0.40261,1.72547 0.40261,3.99734 0,4.65877 -1.89802,7.39076 -1.86926,2.70324 -6.01039,2.70324 z m 1.8405,-1.75423 h 4.51498 q 6.03915,0 6.03915,-8.33977 0,-1.86926 -0.28758,-3.30715 -0.28758,-1.4379 -0.94901,-2.58821 -0.66143,-1.15031 -1.86926,-1.75423 -1.20783,-0.63267 -2.90454,-0.63267 h -4.54374 z"
         style="font-style:normal;font-variant:normal;font-weight:500;font-stretch:normal;font-size:28.75784302px;font-family:Hoxton;-inkscape-font-specification:'Hoxton Medium';text-align:center;text-anchor:middle;stroke-width:0.53919792px"
         id="path901" /><path
         d="m 156.0937,157.1771 q 0,4.86007 -1.98429,7.7071 -1.98429,2.81827 -6.32673,2.81827 -1.89802,0 -3.36467,-0.51765 -1.43789,-0.54639 -2.3869,-1.43789 -0.94901,-0.92025 -1.58168,-2.27187 -0.60391,-1.35162 -0.86273,-2.87578 -0.23007,-1.55293 -0.23007,-3.42218 0,-2.32939 0.46013,-4.16989 0.46012,-1.86926 1.40913,-3.30715 0.97777,-1.46665 2.64573,-2.24312 1.66795,-0.77646 3.93982,-0.77646 2.32938,0 3.96858,0.77646 1.66796,0.77647 2.58821,2.24312 0.92025,1.46665 1.32286,3.30715 0.40261,1.81174 0.40261,4.16989 z m -1.8405,0 q 0,-4.08362 -1.46665,-6.38425 -1.46665,-2.32938 -4.97511,-2.32938 -3.4797,0 -5.06138,2.35814 -1.55292,2.32939 -1.55292,6.35549 0,1.98429 0.31633,3.50845 0.31634,1.49541 1.03528,2.732 0.74771,1.20783 2.07057,1.86926 1.32286,0.63267 3.16336,0.63267 6.47052,0 6.47052,-8.74238 z"
         style="font-style:normal;font-variant:normal;font-weight:500;font-stretch:normal;font-size:28.75784302px;font-family:Hoxton;-inkscape-font-specification:'Hoxton Medium';text-align:center;text-anchor:middle;stroke-width:0.53919792px"
         id="path903" /><path
         d="m 173.02173,167.24234 h -2.24311 l -9.83518,-17.31222 v 17.31222 h -1.75423 v -20.13049 h 2.27187 l 9.77767,17.28346 v -17.28346 h 1.78298 z"
         style="font-style:normal;font-variant:normal;font-weight:500;font-stretch:normal;font-size:28.75784302px;font-family:Hoxton;-inkscape-font-specification:'Hoxton Medium';text-align:center;text-anchor:middle;stroke-width:0.53919792px"
         id="path905" /><path
         d="m 184.86143,147.11185 7.59207,20.13049 h -1.89802 l -2.27187,-6.03915 h -8.39729 l -2.27187,6.03915 h -1.92677 l 7.59207,-20.13049 z m -0.80522,2.81827 -3.53721,9.51884 h 7.13194 q -0.0288,-0.0863 -1.72547,-4.60125 -1.69671,-4.54374 -1.86926,-4.91759 z"
         style="font-style:normal;font-variant:normal;font-weight:500;font-stretch:normal;font-size:28.75784302px;font-family:Hoxton;-inkscape-font-specification:'Hoxton Medium';text-align:center;text-anchor:middle;stroke-width:0.53919792px"
         id="path907" /><path
         d="m 204.71018,148.86608 h -6.0679 v 18.37626 h -1.8405 v -18.37626 h -6.03915 v -1.75423 h 13.94755 z"
         style="font-style:normal;font-variant:normal;font-weight:500;font-stretch:normal;font-size:28.75784302px;font-family:Hoxton;-inkscape-font-specification:'Hoxton Medium';text-align:center;text-anchor:middle;stroke-width:0.53919792px"
         id="path909" /><path
         d="m 218.48833,167.24234 h -11.3881 v -20.13049 h 11.10052 v 1.75423 h -9.23126 v 7.10319 h 8.59859 v 1.75422 h -8.59859 v 7.76462 h 9.51884 z"
         style="font-style:normal;font-variant:normal;font-weight:500;font-stretch:normal;font-size:28.75784302px;font-family:Hoxton;-inkscape-font-specification:'Hoxton Medium';text-align:center;text-anchor:middle;stroke-width:0.53919792px"
         id="path911" /></g><g
       id="g134"
       transform="matrix(0.63266974,0,0,-0.63266974,28.576943,43.080551)"><g
         id="g132"
         transform="matrix(1.6614,0,0,1.6614,-4.189,-4.9973)"><g
           id="g130"
           clip-path="url(#clipPath16)"><g
             id="g88"
             transform="translate(32.419,40.982)"><path
               style="fill:#003087"
               inkscape:connector-curvature="0"
               id="path86"
               d="m 0,0 c -1.674,1.908 -4.7,2.726 -8.571,2.726 h -11.235 c -0.792,0 -1.465,-0.576 -1.589,-1.357 L -26.073,-28.3 c -0.093,-0.585 0.36,-1.115 0.953,-1.115 h 6.936 l 1.742,11.049 -0.054,-0.346 c 0.124,0.781 0.792,1.357 1.583,1.357 h 3.296 c 6.475,0 11.545,2.63 13.026,10.238 0.044,0.225 0.082,0.444 0.115,0.658 C 1.965,-3.647 1.521,-1.733 0,0" /></g><g
             id="g92"
             transform="translate(117.33,26.863)"><path
               style="fill:#009cde"
               inkscape:connector-curvature="0"
               id="path90"
               d="m 0,0 c -0.424,-2.784 -2.55,-2.784 -4.607,-2.784 h -1.17 l 0.821,5.198 c 0.049,0.314 0.32,0.545 0.638,0.545 h 0.537 c 1.4,0 2.722,0 3.404,-0.797 C 0.031,1.685 0.154,0.977 0,0 m -0.895,7.264 h -7.756 c -0.531,0 -0.982,-0.386 -1.065,-0.91 l -3.136,-19.888 c -0.062,-0.392 0.242,-0.747 0.638,-0.747 h 3.98 c 0.371,0 0.687,0.27 0.745,0.636 l 0.89,5.639 c 0.082,0.524 0.534,0.91 1.064,0.91 h 2.454 c 5.109,0 8.058,2.472 8.828,7.373 C 6.094,2.419 5.761,4.103 4.758,5.282 3.655,6.578 1.7,7.264 -0.895,7.264" /></g><g
             id="g96"
             transform="translate(62.012,26.863)"><path
               style="fill:#003087"
               inkscape:connector-curvature="0"
               id="path94"
               d="m 0,0 c -0.424,-2.784 -2.55,-2.784 -4.607,-2.784 h -1.17 l 0.821,5.198 c 0.049,0.314 0.32,0.545 0.638,0.545 h 0.537 c 1.4,0 2.722,0 3.404,-0.797 C 0.031,1.685 0.154,0.977 0,0 m -0.895,7.264 h -7.756 c -0.531,0 -0.982,-0.386 -1.065,-0.91 l -3.136,-19.888 c -0.062,-0.392 0.241,-0.747 0.638,-0.747 h 3.704 c 0.53,0 0.981,0.386 1.064,0.909 l 0.847,5.366 c 0.082,0.524 0.534,0.91 1.064,0.91 h 2.454 c 5.109,0 8.058,2.472 8.828,7.373 C 6.094,2.419 5.761,4.103 4.758,5.282 3.655,6.578 1.7,7.264 -0.895,7.264" /></g><g
             id="g100"
             transform="translate(79.123,19.723)"><path
               style="fill:#003087"
               inkscape:connector-curvature="0"
               id="path98"
               d="m 0,0 c -0.359,-2.122 -2.043,-3.547 -4.192,-3.547 -1.077,0 -1.94,0.347 -2.494,1.003 -0.549,0.65 -0.756,1.577 -0.582,2.608 0.334,2.104 2.046,3.574 4.162,3.574 1.055,0 1.911,-0.35 2.476,-1.012 C -0.061,1.959 0.163,1.027 0,0 M 5.176,7.229 H 1.462 C 1.144,7.229 0.873,6.998 0.823,6.683 L 0.66,5.645 0.401,6.021 c -0.805,1.167 -2.598,1.558 -4.388,1.558 -4.103,0 -7.608,-3.11 -8.29,-7.471 -0.355,-2.176 0.149,-4.255 1.383,-5.706 1.133,-1.333 2.75,-1.888 4.677,-1.888 3.308,0 5.142,2.124 5.142,2.124 L -1.241,-6.394 C -1.303,-6.786 -1,-7.141 -0.602,-7.141 h 3.344 c 0.531,0 0.982,0.385 1.065,0.909 L 5.815,6.482 C 5.877,6.874 5.573,7.229 5.176,7.229" /></g><g
             id="g104"
             transform="translate(134.44,19.723)"><path
               style="fill:#009cde"
               inkscape:connector-curvature="0"
               id="path102"
               d="m 0,0 c -0.359,-2.122 -2.043,-3.547 -4.192,-3.547 -1.077,0 -1.94,0.347 -2.494,1.003 -0.55,0.65 -0.756,1.577 -0.582,2.608 0.334,2.104 2.046,3.574 4.162,3.574 1.055,0 1.911,-0.35 2.476,-1.012 C -0.061,1.959 0.163,1.027 0,0 M 5.176,7.229 H 1.462 C 1.144,7.229 0.873,6.998 0.823,6.683 L 0.66,5.645 0.4,6.021 c -0.804,1.167 -2.597,1.558 -4.387,1.558 -4.103,0 -7.608,-3.11 -8.29,-7.471 -0.355,-2.176 0.149,-4.255 1.383,-5.706 1.133,-1.333 2.75,-1.888 4.677,-1.888 3.308,0 5.142,2.124 5.142,2.124 L -1.241,-6.394 C -1.303,-6.786 -1,-7.141 -0.602,-7.141 h 3.344 c 0.531,0 0.982,0.385 1.065,0.909 L 5.815,6.482 C 5.877,6.874 5.573,7.229 5.176,7.229" /></g><g
             id="g108"
             transform="translate(104.08,26.952)"><path
               style="fill:#003087"
               inkscape:connector-curvature="0"
               id="path106"
               d="M 0,0 H -3.733 C -4.09,0 -4.424,-0.177 -4.624,-0.473 l -5.15,-7.584 -2.182,7.288 C -12.093,-0.313 -12.513,0 -12.989,0 h -3.669 c -0.443,0 -0.755,-0.436 -0.612,-0.855 l 4.11,-12.066 -3.866,-5.455 c -0.303,-0.428 0.003,-1.02 0.528,-1.02 h 3.729 c 0.353,0 0.684,0.173 0.886,0.463 L 0.531,-1.015 C 0.828,-0.586 0.522,0 0,0" /></g><g
             id="g112"
             transform="translate(144,33.581)"><path
               style="fill:#009cde"
               inkscape:connector-curvature="0"
               id="path110"
               d="m 0,0 -3.183,-20.252 c -0.062,-0.392 0.241,-0.747 0.638,-0.747 h 3.202 c 0.53,0 0.982,0.386 1.064,0.91 L 4.86,-0.201 C 4.922,0.191 4.619,0.546 4.221,0.546 H 0.639 C 0.32,0.546 0.049,0.315 0,0" /></g><g
             id="g116"
             transform="translate(32.419,40.982)"><path
               style="fill:#003087"
               inkscape:connector-curvature="0"
               id="path114"
               d="m 0,0 c -1.674,1.908 -4.7,2.726 -8.571,2.726 h -11.235 c -0.792,0 -1.465,-0.576 -1.589,-1.357 L -26.073,-28.3 c -0.093,-0.585 0.36,-1.115 0.953,-1.115 h 6.936 l 1.742,11.049 -0.054,-0.346 c 0.124,0.781 0.792,1.357 1.583,1.357 h 3.296 c 6.475,0 11.545,2.63 13.026,10.238 0.044,0.225 0.082,0.444 0.115,0.658 C 1.965,-3.647 1.521,-1.733 0,0" /></g><g
             id="g120"
             transform="translate(17.849,34.485)"><path
               style="fill:#003087"
               inkscape:connector-curvature="0"
               id="path118"
               d="m 0,0 c 0.074,0.47 0.376,0.855 0.782,1.05 0.185,0.088 0.391,0.137 0.607,0.137 h 8.808 c 1.043,0 2.016,-0.068 2.905,-0.211 0.255,-0.041 0.502,-0.088 0.742,-0.142 0.24,-0.053 0.473,-0.113 0.699,-0.179 C 14.656,0.622 14.767,0.588 14.876,0.552 15.313,0.406 15.72,0.236 16.094,0.037 16.535,2.85 16.091,4.763 14.57,6.496 12.895,8.404 9.87,9.222 5.999,9.222 H -5.237 c -0.791,0 -1.464,-0.576 -1.588,-1.357 l -4.678,-29.668 c -0.093,-0.586 0.36,-1.115 0.952,-1.115 h 6.937 l 1.742,11.049 z" /></g><g
             id="g124"
             transform="translate(33.943,34.523)"><path
               style="fill:#009cde"
               inkscape:connector-curvature="0"
               id="path122"
               d="m 0,0 c -0.034,-0.215 -0.071,-0.433 -0.115,-0.658 -1.481,-7.607 -6.551,-10.238 -13.026,-10.238 h -3.297 c -0.791,0 -1.459,-0.576 -1.582,-1.357 l -1.688,-10.702 -0.479,-3.036 c -0.081,-0.512 0.315,-0.976 0.833,-0.976 h 5.847 c 0.692,0 1.281,0.504 1.389,1.187 l 0.057,0.298 1.102,6.984 0.071,0.386 c 0.108,0.683 0.697,1.187 1.389,1.187 h 0.875 c 5.664,0 10.099,2.301 11.395,8.956 0.541,2.781 0.261,5.103 -1.17,6.734 C 1.167,-0.741 0.628,-0.333 0,0" /></g><g
             id="g128"
             transform="translate(32.392,35.141)"><path
               style="fill:#012169"
               inkscape:connector-curvature="0"
               id="path126"
               d="m 0,0 c -0.226,0.066 -0.459,0.126 -0.699,0.179 -0.24,0.053 -0.488,0.1 -0.742,0.141 -0.89,0.144 -1.862,0.212 -2.906,0.212 h -8.807 c -0.217,0 -0.423,-0.049 -0.607,-0.138 -0.407,-0.195 -0.708,-0.579 -0.782,-1.05 l -1.872,-11.869 -0.054,-0.346 c 0.123,0.781 0.791,1.357 1.582,1.357 h 3.297 c 6.475,0 11.545,2.63 13.026,10.238 0.044,0.225 0.081,0.443 0.115,0.658 C 1.176,-0.42 0.77,-0.249 0.333,-0.104 0.224,-0.068 0.113,-0.033 0,0" /></g></g></g></g><path
       inkscape:connector-curvature="0"
       id="path136"
       d="M 7.4355469,23.376272 C 3.3473266,23.376272 0,26.740578 0,30.841116 v 74.662104 c 0,4.10054 3.3473266,7.4668 7.4355469,7.4668 H 332.56445 c 4.08823,0 7.43555,-3.36626 7.43555,-7.4668 V 30.841116 c 0,-4.100537 -3.34732,-7.464844 -7.43555,-7.464844 H 192.43359 v 1.658203 h 140.13086 c 3.17912,0 5.77735,2.607042 5.77735,5.806641 v 74.662104 c 0,3.19961 -2.59823,5.80665 -5.77735,5.80665 H 7.4355469 c -3.1791153,0 -5.7773438,-2.60705 -5.7773438,-5.80665 V 30.841116 c 0,-3.199598 2.5982285,-5.806641 5.7773438,-5.806641 H 22.300781 v -1.658203 z"
       style="color:#000000;font-style:normal;font-variant:normal;font-weight:normal;font-stretch:normal;font-size:medium;line-height:normal;font-family:sans-serif;font-variant-ligatures:normal;font-variant-position:normal;font-variant-caps:normal;font-variant-numeric:normal;font-variant-alternates:normal;font-feature-settings:normal;text-indent:0;text-align:start;text-decoration:none;text-decoration-line:none;text-decoration-style:solid;text-decoration-color:#000000;letter-spacing:normal;word-spacing:normal;text-transform:none;writing-mode:lr-tb;direction:ltr;text-orientation:mixed;dominant-baseline:auto;baseline-shift:baseline;text-anchor:start;white-space:normal;shape-padding:0;clip-rule:nonzero;display:inline;overflow:visible;visibility:visible;opacity:1;isolation:auto;mix-blend-mode:normal;color-interpolation:sRGB;color-interpolation-filters:linearRGB;solid-color:#000000;solid-opacity:1;vector-effect:none;fill:#bcbec0;fill-opacity:1;fill-rule:nonzero;stroke:none;stroke-width:1.65917015;stroke-linecap:butt;stroke-linejoin:miter;stroke-miterlimit:10;stroke-dasharray:none;stroke-dashoffset:0;stroke-opacity:1;color-rendering:auto;image-rendering:auto;shape-rendering:auto;text-rendering:auto;enable-background:accumulate" /><g
       transform="translate(1.1408185,1.1707813)"
       id="g430"><g
         transform="matrix(0.2892838,0,0,0.28928092,-337.25799,-317.39023)"
         id="g56"><g
           transform="matrix(3.1437,0,0,3.1437,-1661.1,-866.42)"
           id="g54"><g
             transform="matrix(1.25,0,0,-1.25,1176,710.77)"
             id="g34"><path
               d="M 0,0 V 0.61 H -0.159 L -0.343,0.191 -0.526,0.61 h -0.16 V 0 h 0.113 v 0.46 l 0.172,-0.397 h 0.117 l 0.172,0.398 V 0 Z m -1.009,0 v 0.506 h 0.204 v 0.103 h -0.52 V 0.506 h 0.204 V 0 Z"
               id="path32"
               inkscape:connector-curvature="0"
               style="fill:#0099df" /></g><path
             d="m 1153.4,714.05 h -17.202 v -30.915 h 17.202 z"
             id="path36"
             inkscape:connector-curvature="0"
             style="fill:#6c6bbd" /><g
             transform="matrix(1.25,0,0,-1.25,1137.3,698.59)"
             id="g40"><path
               d="m 0,0 c 0,5.017 2.349,9.486 6.007,12.366 -2.675,2.106 -6.051,3.363 -9.72,3.363 -8.686,0 -15.727,-7.042 -15.727,-15.729 0,-8.687 7.041,-15.729 15.727,-15.729 3.669,0 7.045,1.257 9.72,3.363 C 2.349,-9.486 0,-5.017 0,0"
               id="path38"
               inkscape:connector-curvature="0"
               style="fill:#eb001b" /></g><g
             transform="matrix(1.25,0,0,-1.25,1176.6,698.59)"
             id="g44"><path
               d="m 0,0 c 0,-8.687 -7.041,-15.729 -15.727,-15.729 -3.669,0 -7.045,1.257 -9.721,3.363 3.659,2.88 6.008,7.349 6.008,12.366 0,5.017 -2.349,9.486 -6.008,12.366 2.676,2.106 6.052,3.363 9.721,3.363 C -7.041,15.729 0,8.687 0,0"
               id="path42"
               inkscape:connector-curvature="0"
               style="fill:#0099df" /></g><g
             transform="matrix(1.25,0,0,-1.25,1159.2,722.78)"
             id="g48"><path
               d="M 0,0 C 0.183,0 0.446,-0.035 0.647,-0.114 L 0.367,-0.97 c -0.192,0.079 -0.384,0.105 -0.568,0.105 -0.594,0 -0.891,-0.384 -0.891,-1.074 v -2.342 h -0.909 v 4.176 h 0.9 V -0.612 C -0.865,-0.245 -0.524,0 0,0 m -3.358,-0.935 h -1.485 v -1.887 c 0,-0.419 0.148,-0.699 0.603,-0.699 0.236,0 0.533,0.079 0.803,0.236 l 0.262,-0.777 c -0.288,-0.201 -0.742,-0.324 -1.135,-0.324 -1.075,0 -1.45,0.577 -1.45,1.547 v 1.904 h -0.848 v 0.83 h 0.848 v 1.267 h 0.917 v -1.267 h 1.485 z m -11.629,-0.891 c 0.097,0.603 0.463,1.014 1.11,1.014 0.585,0 0.961,-0.367 1.057,-1.014 z m 3.111,-0.367 C -11.885,-0.891 -12.689,0 -13.86,0 c -1.223,0 -2.079,-0.891 -2.079,-2.193 0,-1.327 0.891,-2.192 2.141,-2.192 0.629,0 1.205,0.157 1.712,0.585 l -0.446,0.673 c -0.349,-0.28 -0.795,-0.437 -1.214,-0.437 -0.585,0 -1.118,0.271 -1.249,1.022 h 3.101 c 0.009,0.114 0.018,0.227 0.018,0.349 m 3.992,1.022 c -0.253,0.158 -0.768,0.359 -1.301,0.359 -0.498,0 -0.795,-0.184 -0.795,-0.49 0,-0.279 0.314,-0.358 0.707,-0.41 l 0.428,-0.061 c 0.909,-0.132 1.459,-0.516 1.459,-1.25 0,-0.795 -0.699,-1.363 -1.904,-1.363 -0.682,0 -1.311,0.175 -1.809,0.542 l 0.428,0.708 c 0.306,-0.236 0.761,-0.437 1.39,-0.437 0.62,0 0.952,0.183 0.952,0.507 0,0.235 -0.236,0.367 -0.734,0.436 l -0.428,0.061 c -0.935,0.132 -1.442,0.551 -1.442,1.232 0,0.83 0.682,1.337 1.739,1.337 0.664,0 1.267,-0.149 1.703,-0.437 z M 3.321,-0.863 C 3.134,-0.863 2.961,-0.896 2.8,-0.961 2.64,-1.027 2.501,-1.119 2.384,-1.237 2.267,-1.355 2.175,-1.497 2.108,-1.662 c -0.067,-0.165 -0.1,-0.347 -0.1,-0.545 0,-0.199 0.033,-0.38 0.1,-0.545 0.067,-0.165 0.159,-0.307 0.276,-0.425 0.117,-0.118 0.256,-0.21 0.416,-0.276 0.161,-0.066 0.334,-0.098 0.521,-0.098 0.187,0 0.361,0.032 0.521,0.098 0.161,0.066 0.301,0.158 0.418,0.276 0.119,0.118 0.211,0.26 0.279,0.425 0.067,0.165 0.1,0.346 0.1,0.545 0,0.198 -0.033,0.38 -0.1,0.545 -0.068,0.165 -0.16,0.307 -0.279,0.425 -0.117,0.118 -0.257,0.21 -0.418,0.276 -0.16,0.065 -0.334,0.098 -0.521,0.098 M 3.321,0 C 3.645,0 3.945,-0.056 4.221,-0.169 4.497,-0.281 4.736,-0.436 4.937,-0.633 5.139,-0.83 5.296,-1.063 5.41,-1.331 5.524,-1.6 5.581,-1.892 5.581,-2.207 5.581,-2.522 5.524,-2.814 5.41,-3.083 5.296,-3.351 5.139,-3.585 4.937,-3.782 4.736,-3.979 4.497,-4.133 4.221,-4.246 3.945,-4.358 3.645,-4.414 3.321,-4.414 c -0.324,0 -0.624,0.056 -0.9,0.168 -0.276,0.113 -0.513,0.267 -0.713,0.464 -0.2,0.197 -0.357,0.431 -0.471,0.699 -0.114,0.269 -0.171,0.561 -0.171,0.876 0,0.315 0.057,0.607 0.171,0.876 0.114,0.268 0.271,0.501 0.471,0.698 0.2,0.197 0.437,0.352 0.713,0.464 C 2.697,-0.056 2.997,0 3.321,0 m -23.616,-2.193 c 0,0.734 0.481,1.337 1.267,1.337 0.751,0 1.258,-0.577 1.258,-1.337 0,-0.76 -0.507,-1.336 -1.258,-1.336 -0.786,0 -1.267,0.602 -1.267,1.336 m 3.381,0 v 2.088 h -0.908 V -0.612 C -18.111,-0.236 -18.547,0 -19.141,0 c -1.171,0 -2.088,-0.917 -2.088,-2.193 0,-1.275 0.917,-2.193 2.088,-2.193 0.594,0 1.03,0.236 1.319,0.612 v -0.507 h 0.908 z m -5.119,-2.088 v 2.621 c 0,0.987 -0.629,1.651 -1.642,1.66 -0.533,0.009 -1.084,-0.157 -1.468,-0.743 C -25.431,-0.28 -25.886,0 -26.524,0 c -0.445,0 -0.882,-0.131 -1.223,-0.62 v 0.515 h -0.908 v -4.176 h 0.917 v 2.315 c 0,0.725 0.402,1.11 1.022,1.11 0.603,0 0.909,-0.393 0.909,-1.101 v -2.324 h 0.917 v 2.315 c 0,0.725 0.42,1.11 1.022,1.11 0.621,0 0.918,-0.393 0.918,-1.101 v -2.324 z"
               id="path46"
               inkscape:connector-curvature="0"
               style="fill:#231f20" /></g><g
             transform="matrix(1.25,0,0,-1.25,1167.4,727.74)"
             id="g52"><path
               d="m 0,0 v -0.103 h 0.095 c 0.021,0 0.039,0.005 0.051,0.013 0.013,0.008 0.02,0.022 0.02,0.039 0,0.017 -0.007,0.03 -0.02,0.038 C 0.134,-0.004 0.116,0 0.095,0 Z M 0.096,0.072 C 0.145,0.072 0.183,0.061 0.21,0.039 0.237,0.017 0.25,-0.013 0.25,-0.051 0.25,-0.083 0.24,-0.109 0.218,-0.13 0.197,-0.15 0.166,-0.163 0.127,-0.168 L 0.253,-0.313 H 0.155 L 0.038,-0.169 H 0 V -0.313 H -0.082 V 0.072 Z M 0.071,-0.445 c 0.045,0 0.087,0.008 0.125,0.025 0.039,0.017 0.073,0.04 0.102,0.069 0.029,0.029 0.052,0.063 0.069,0.103 0.016,0.039 0.025,0.081 0.025,0.126 0,0.045 -0.009,0.087 -0.025,0.126 C 0.35,0.043 0.327,0.078 0.298,0.107 0.269,0.136 0.235,0.159 0.196,0.175 0.158,0.192 0.116,0.2 0.071,0.2 0.026,0.2 -0.017,0.192 -0.056,0.175 -0.096,0.159 -0.131,0.136 -0.16,0.107 -0.189,0.078 -0.212,0.043 -0.228,0.004 c -0.017,-0.039 -0.025,-0.081 -0.025,-0.126 0,-0.045 0.008,-0.087 0.025,-0.126 0.016,-0.04 0.039,-0.074 0.068,-0.103 0.029,-0.029 0.064,-0.052 0.104,-0.069 0.039,-0.017 0.082,-0.025 0.127,-0.025 m 0,0.738 C 0.13,0.293 0.184,0.282 0.235,0.26 0.287,0.239 0.331,0.209 0.37,0.171 0.408,0.134 0.438,0.09 0.46,0.039 0.482,-0.011 0.493,-0.065 0.493,-0.122 0.493,-0.179 0.482,-0.233 0.46,-0.283 0.438,-0.333 0.408,-0.377 0.37,-0.414 0.331,-0.452 0.287,-0.482 0.235,-0.504 0.184,-0.526 0.13,-0.537 0.071,-0.537 c -0.06,0 -0.115,0.011 -0.167,0.033 -0.052,0.022 -0.097,0.052 -0.135,0.09 -0.038,0.037 -0.068,0.081 -0.09,0.131 -0.022,0.05 -0.033,0.104 -0.033,0.161 0,0.057 0.011,0.111 0.033,0.161 0.022,0.051 0.052,0.095 0.09,0.132 0.038,0.038 0.083,0.068 0.135,0.089 0.052,0.022 0.107,0.033 0.167,0.033"
               id="path50"
               inkscape:connector-curvature="0"
               style="fill:#231f20" /></g></g></g><g
         transform="matrix(0.32796443,0,0,-0.32796443,-46.00149,201.61865)"
         id="g70"><path
           d="m 414.92,326.93 h -216 v 137.21 h 216 z"
           id="path58"
           inkscape:connector-curvature="0"
           style="fill:#ffffff" /><path
           d="m 202.51,349.22 h 208.8 V 330.5 h -208.8 z"
           id="path60"
           inkscape:connector-curvature="0"
           style="fill:#f7b600" /><path
           d="m 202.51,441.82 h 208.8 v 18.72 h -208.8 z"
           id="path62"
           inkscape:connector-curvature="0"
           style="fill:#1a1f71" /><g
           clip-path="url(#clipPath4157)"
           id="g68"><g
             transform="translate(305.11,421.19)"
             id="g66"><path
               d="M 0,0 -11.006,-51.455 H -24.318 L -13.311,0 Z m 56.004,-33.226 7.008,19.324 4.031,-19.324 z M 70.863,-51.455 H 83.172 L 72.418,0 H 61.063 c -2.559,0 -4.715,-1.484 -5.67,-3.772 L 35.418,-51.455 h 13.98 l 2.776,7.684 H 69.25 Z m -34.752,16.799 c 0.059,13.579 -18.771,14.332 -18.646,20.399 0.041,1.844 1.799,3.808 5.644,4.31 1.907,0.246 7.166,0.444 13.129,-2.303 L 38.57,-1.334 C 35.367,-0.176 31.246,0.94 26.119,0.94 12.959,0.94 3.701,-6.05 3.627,-16.068 c -0.084,-7.408 6.613,-11.538 11.648,-14.005 5.192,-2.522 6.932,-4.14 6.907,-6.393 -0.036,-3.452 -4.141,-4.98 -7.961,-5.038 -6.698,-0.104 -10.578,1.81 -13.672,3.252 l -2.416,-11.28 c 3.115,-1.426 8.855,-2.667 14.799,-2.731 13.99,0 23.138,6.909 23.179,17.607 M -19.021,0 -40.59,-51.455 h -14.07 l -10.615,41.065 c -0.643,2.525 -1.204,3.453 -3.161,4.52 -3.201,1.739 -8.486,3.365 -13.132,4.377 L -81.254,0 h 22.652 c 2.885,0 5.481,-1.92 6.141,-5.243 L -46.854,-35.021 -33.006,0 Z"
               id="path64"
               inkscape:connector-curvature="0"
               style="fill:#1a1f71" /></g></g></g><g
         transform="matrix(0.36339051,0,0,0.36339051,293.71937,-38.625253)"
         id="g146"><rect
           x="-50.188999"
           y="245.19"
           width="118.33"
           height="118.33"
           rx="6.8098001"
           ry="6.8098001"
           id="rect138"
           style="fill:url(#radialGradient1776);fill-rule:evenodd" /><g
           transform="translate(-50.189,245.47)"
           id="g144"
           style="fill:#ffffff;stroke-width:0.4172"><path
             d="m 10.603,51.084 -2.2629,-5.5142 -2.25,5.5142 m 54.364,-2.1957 c -0.45434,0.27577 -0.99169,0.28495 -1.6354,0.28495 h -4.0164 v -3.0723 h 4.0711 c 0.57615,0 1.1773,0.0259 1.5678,0.24949 0.42889,0.20151 0.69423,0.63039 0.69423,1.2228 0,0.60452 -0.25241,1.091 -0.68129,1.315 z m 28.653,2.1957 -2.2879,-5.5142 -2.2754,5.5142 z m -53.41,5.9685 h -3.3894 l -0.0125,-10.833 -4.7941,10.833 h -2.9029 l -4.8066,-10.843 v 10.843 H 13.0671 L 11.7967,53.9673 H 4.9129 L 3.6296,57.0525 H 0.0387 l 5.9205,-13.832 h 4.9121 l 5.623,13.096 v -13.096 h 5.3961 l 4.3268,9.3833 3.9747,-9.3833 h 5.5046 v 13.832 z m 13.509,0 h -11.045 v -13.832 h 11.045 v 2.8804 h -7.7383 v 2.4932 h 7.5526 v 2.8353 h -7.5526 v 2.7623 h 7.7383 z m 15.572,-10.107 c 0,2.2053 -1.4719,3.3447 -2.3297,3.6868 0.72343,0.27535 1.3413,0.76181 1.6354,1.1648 0.46685,0.68796 0.54737,1.3025 0.54737,2.5378 v 2.7172 h -3.3347 l -0.0125,-1.7443 c 0,-0.83232 0.0797,-2.0293 -0.52192,-2.6947 -0.48312,-0.48645 -1.2195,-0.59201 -2.4098,-0.59201 h -3.5491 v 5.031 h -3.3059 v -13.832 h 7.6043 c 1.6897,0 2.9346,0.0446 4.0035,0.66251 1.0459,0.61788 1.673,1.5199 1.673,3.0627 z m 5.291,10.107 h -3.3735 v -13.832 h 3.3735 z m 39.137,0 h -4.6852 l -6.2668,-10.382 v 10.382 h -6.7332 l -1.2866,-3.0852 h -6.868 l -1.2483,3.0852 h -3.8687 c -1.6071,0 -3.6418,-0.35545 -4.7941,-1.5299 -1.1619,-1.1744 -1.7664,-2.7652 -1.7664,-5.2805 0,-2.0514 0.36129,-3.9267 1.7823,-5.4086 1.0689,-1.1039 2.7427,-1.6129 5.021,-1.6129 h 3.2008 v 2.9638 h -3.1336 c -1.2066,0 -1.8878,0.1794 -2.5441,0.81939 -0.56364,0.58241 -0.95039,1.6834 -0.95039,3.1332 0,1.4819 0.29455,2.5504 0.90909,3.2483 0.50898,0.54737 1.4339,0.71341 2.3042,0.71341 h 1.4848 l 4.6597,-10.878 h 4.9538 l 5.5976,13.083 v -13.083 h 5.034 l 5.8116,9.6332 v -9.6332 h 3.3864 z m -109.21,2.7168 H 5.645 L 6.9187,56.697 h 2.8516 l 1.2704,3.0723 h 11.115 v -2.3488 l 0.9921,2.3589 h 5.7699 l 0.99211,-2.3939 v 2.3839 h 27.622 l -0.0129,-5.0431 h 0.53443 c 0.37423,0.0129 0.48354,0.0476 0.48354,0.66543 v 4.3777 h 14.286 v -1.174 c 1.1523,0.61746 2.9446,1.174 5.3031,1.174 h 6.0102 l 1.2862,-3.0723 h 2.8516 l 1.2579,3.0723 h 11.582 v -2.9183 l 1.7539,2.9183 h 9.2811 v -19.291 h -9.1851 v 2.2783 l -1.2862,-2.2783 h -9.425 v 2.2783 l -1.1811,-2.2783 h -12.731 c -2.1311,0 -4.0043,0.29747 -5.5175,1.1264 v -1.1264 h -8.7854 v 1.1264 c -0.9629,-0.85443 -2.275,-1.1264 -3.734,-1.1264 h -32.097 l -2.1536,4.9826 -2.2116,-4.9826 h -10.11 v 2.2783 l -1.1106,-2.2783 h -8.6219 l -4.0039,9.1722 v 10.119 z"
             id="path140"
             inkscape:connector-curvature="0" /><path
             d="m 117.63,69.972 h -6.0256 c -0.6016,0 -1.0013,0.0225 -1.338,0.2499 -0.34878,0.22404 -0.48312,0.55655 -0.48312,0.99545 0,0.52192 0.29454,0.87696 0.72301,1.0305 0.34878,0.1214 0.72343,0.15687 1.2741,0.15687 l 1.7919,0.048 c 1.8082,0.0446 3.0151,0.35546 3.7511,1.1135 0.13392,0.10555 0.21444,0.22403 0.30664,0.34252 m 0,5.1846 c -0.80311,1.1744 -2.368,1.7698 -4.4866,1.7698 h -6.3849 v -2.9667 h 6.359 c 0.63081,0 1.0722,-0.083 1.338,-0.34253 0.2303,-0.21402 0.39092,-0.52484 0.39092,-0.9024 0,-0.40302 -0.16062,-0.72302 -0.40385,-0.91493 -0.23989,-0.2111 -0.58909,-0.30706 -1.1648,-0.30706 -3.1044,-0.10555 -6.9773,0.096 -6.9773,-4.2822 0,-2.0067 1.2741,-4.119 4.7436,-4.119 h 6.5855 v -2.7527 h -6.1187 c -1.8465,0 -3.1878,0.44224 -4.1378,1.1298 v -1.1298 h -9.0504 c -1.4473,0 -3.1461,0.3588 -3.9497,1.1298 v -1.1298 H 78.211 v 1.1298 c -1.2862,-0.92786 -3.4565,-1.1298 -4.4582,-1.1298 h -10.66 v 1.1298 c -1.0176,-0.98543 -3.2805,-1.1298 -4.6597,-1.1298 h -11.931 l -2.7302,2.9546 -2.557,-2.9546 h -17.822 v 19.305 h 17.487 l 2.8132,-3.0014 2.6501,3.0014 10.779,0.01 v -4.5412 h 1.0597 c 1.4302,0.0221 3.1169,-0.0355 4.6051,-0.67879 v 5.21 h 8.8906 v -5.0315 h 0.42889 c 0.54737,0 0.60118,0.0225 0.60118,0.56948 v 4.4616 h 27.008 c 1.7147,0 3.507,-0.43889 4.4995,-1.2353 v 1.2353 h 8.5668 c 1.7827,0 3.5237,-0.2499 4.8483,-0.88989 z m -13.188,-5.5271 c 0.64374,0.66627 0.98877,1.5074 0.98877,2.9313 0,2.9763 -1.8595,4.3656 -5.1938,4.3656 h -6.4395 v -2.9667 h 6.4136 c 0.62706,0 1.0718,-0.083 1.3505,-0.34253 0.22737,-0.21402 0.3905,-0.52484 0.3905,-0.9024 0,-0.40302 -0.17648,-0.72302 -0.40344,-0.91493 -0.25282,-0.2111 -0.6016,-0.30706 -1.1773,-0.30706 -3.0919,-0.10555 -6.9639,0.096 -6.9639,-4.2822 0,-2.0067 1.2608,-4.119 4.7269,-4.119 h 6.6281 v 2.9446 h -6.0649 c -0.60118,0 -0.9921,0.0225 -1.3246,0.2499 -0.36213,0.22404 -0.49647,0.55655 -0.49647,0.99544 0,0.52192 0.30748,0.87696 0.72343,1.0305 0.34878,0.12141 0.72342,0.15687 1.2866,0.15687 l 1.7798,0.048 c 1.7948,0.0438 3.0268,0.3542 3.7757,1.1127 z m -29.833,-0.85443 c -0.44223,0.26242 -0.98918,0.28495 -1.6325,0.28495 h -4.0164 v -3.1073 h 4.0711 c 0.58867,0 1.1778,0.0125 1.5778,0.24991 0.42847,0.22404 0.68463,0.6525 0.68463,1.2445 0,0.592 -0.25616,1.0689 -0.68463,1.328 z m 1.9967,1.7218 c 0.73595,0.2716 1.3376,0.75847 1.6196,1.1615 0.46685,0.67545 0.53444,1.3058 0.54779,2.5253 v 2.7427 h -3.3193 v -1.731 c 0,-0.83232 0.0801,-2.0647 -0.53444,-2.7081 -0.48312,-0.49564 -1.2195,-0.61412 -2.4256,-0.61412 h -3.5333 v 5.0532 h -3.3222 v -13.835 h 7.6331 c 1.6738,0 2.8929,0.0738 3.978,0.65292 1.0434,0.63039 1.6997,1.494 1.6997,3.0723 -4.2e-4,2.2082 -1.4731,3.3351 -2.3434,3.6806 z m 4.1766,-7.4058 h 11.035 v 2.8612 h -7.742 v 2.5153 h 7.553 v 2.8228 h -7.553 v 2.7527 l 7.742,0.0125 v 2.8708 h -11.035 z m -22.307,6.3849 h -4.2726 v -3.5233 h 4.311 c 1.1936,0 2.0222,0.48646 2.0222,1.6964 0,1.1965 -0.79018,1.8269 -2.0606,1.8269 z m -7.5655,6.1921 -5.0761,-5.6356 5.0761,-5.4566 z m -13.109,-1.625 h -8.1288 v -2.7527 h 7.2585 v -2.8228 h -7.2585 v -2.5153 h 8.289 l 3.6163,4.0318 z m 26.285,-6.394 c 0,3.8433 -2.8674,4.6368 -5.7574,4.6368 h -4.1253 v 4.6405 h -6.4262 l -4.0711,-4.58 -4.2308,4.58 h -13.096 v -13.835 h 13.297 l 4.0677,4.535 4.2054,-4.535 h 10.564 c 2.6238,0 5.5717,0.72634 5.5717,4.5579 z"
             id="path142"
             inkscape:connector-curvature="0" /></g></g><g
         transform="matrix(0.28928092,0,0,0.28928092,566.22378,-270.76393)"
         id="g168"><g
           transform="matrix(3.1437,0,0,3.1437,-4835.7,-1027.6)"
           id="g166"><g
             transform="matrix(1.25,0,0,-1.25,1102.5,727.74)"
             id="g150"><path
               d="m 0,0 v -0.103 h 0.095 c 0.021,0 0.039,0.005 0.052,0.013 0.012,0.008 0.019,0.022 0.019,0.039 0,0.017 -0.007,0.03 -0.019,0.038 C 0.134,-0.004 0.116,0 0.095,0 Z M 0.096,0.072 C 0.145,0.072 0.183,0.061 0.21,0.039 0.237,0.017 0.25,-0.013 0.25,-0.051 0.25,-0.083 0.24,-0.109 0.218,-0.13 0.197,-0.15 0.167,-0.163 0.127,-0.168 L 0.253,-0.313 H 0.155 L 0.038,-0.169 H 0 V -0.313 H -0.082 V 0.072 Z M 0.071,-0.446 c 0.045,0 0.087,0.009 0.125,0.026 0.039,0.017 0.073,0.04 0.102,0.069 0.029,0.029 0.052,0.063 0.069,0.103 0.016,0.039 0.025,0.081 0.025,0.126 0,0.045 -0.009,0.087 -0.025,0.126 C 0.35,0.043 0.327,0.078 0.298,0.107 0.269,0.136 0.235,0.159 0.196,0.176 0.158,0.192 0.116,0.2 0.071,0.2 0.026,0.2 -0.017,0.192 -0.056,0.176 -0.096,0.159 -0.131,0.136 -0.16,0.107 -0.189,0.078 -0.212,0.043 -0.228,0.004 c -0.017,-0.039 -0.025,-0.081 -0.025,-0.126 0,-0.045 0.008,-0.087 0.025,-0.126 0.016,-0.04 0.039,-0.074 0.068,-0.103 0.029,-0.029 0.064,-0.052 0.104,-0.069 0.039,-0.017 0.082,-0.026 0.127,-0.026 m 0,0.739 C 0.13,0.293 0.184,0.282 0.236,0.26 0.287,0.239 0.331,0.209 0.37,0.171 0.408,0.134 0.438,0.09 0.46,0.039 0.482,-0.011 0.493,-0.065 0.493,-0.122 0.493,-0.179 0.482,-0.233 0.46,-0.283 0.438,-0.333 0.408,-0.377 0.37,-0.415 0.331,-0.452 0.287,-0.482 0.236,-0.504 0.184,-0.526 0.13,-0.537 0.071,-0.537 c -0.06,0 -0.115,0.011 -0.167,0.033 -0.052,0.022 -0.097,0.052 -0.135,0.089 -0.038,0.038 -0.068,0.082 -0.09,0.132 -0.022,0.05 -0.033,0.104 -0.033,0.161 0,0.057 0.011,0.111 0.033,0.161 0.022,0.051 0.052,0.095 0.09,0.132 0.038,0.038 0.083,0.068 0.135,0.089 0.052,0.022 0.107,0.033 0.167,0.033 M -38.89,1.776 c 0,0.734 0.481,1.337 1.267,1.337 0.751,0 1.258,-0.577 1.258,-1.337 0,-0.76 -0.507,-1.337 -1.258,-1.337 -0.786,0 -1.267,0.603 -1.267,1.337 m 3.381,0 v 2.088 h -0.908 V 3.357 c -0.288,0.376 -0.725,0.612 -1.319,0.612 -1.171,0 -2.089,-0.918 -2.089,-2.193 0,-1.276 0.918,-2.193 2.089,-2.193 0.594,0 1.031,0.236 1.319,0.612 v -0.507 h 0.908 z m 30.684,0 c 0,0.734 0.481,1.337 1.267,1.337 0.752,0 1.258,-0.577 1.258,-1.337 0,-0.76 -0.506,-1.337 -1.258,-1.337 -0.786,0 -1.267,0.603 -1.267,1.337 m 3.382,0 V 5.541 H -2.352 V 3.357 c -0.288,0.376 -0.725,0.612 -1.319,0.612 -1.171,0 -2.089,-0.918 -2.089,-2.193 0,-1.276 0.918,-2.193 2.089,-2.193 0.594,0 1.031,0.236 1.319,0.612 v -0.507 h 0.909 z m -22.795,1.38 c 0.585,0 0.961,-0.367 1.057,-1.013 h -2.167 c 0.097,0.603 0.463,1.013 1.11,1.013 m 0.018,0.813 c -1.224,0 -2.08,-0.891 -2.08,-2.193 0,-1.328 0.891,-2.193 2.141,-2.193 0.629,0 1.205,0.157 1.712,0.585 l -0.445,0.673 c -0.35,-0.279 -0.796,-0.437 -1.215,-0.437 -0.585,0 -1.118,0.271 -1.249,1.023 h 3.101 c 0.009,0.113 0.018,0.227 0.018,0.349 -0.009,1.302 -0.813,2.193 -1.983,2.193 m 10.964,-2.193 c 0,0.734 0.481,1.337 1.267,1.337 0.751,0 1.258,-0.577 1.258,-1.337 0,-0.76 -0.507,-1.337 -1.258,-1.337 -0.786,0 -1.267,0.603 -1.267,1.337 m 3.381,0 v 2.088 h -0.908 V 3.357 c -0.289,0.376 -0.725,0.612 -1.319,0.612 -1.171,0 -2.089,-0.918 -2.089,-2.193 0,-1.276 0.918,-2.193 2.089,-2.193 0.594,0 1.03,0.236 1.319,0.612 v -0.507 h 0.908 z m -8.509,0 c 0,-1.267 0.882,-2.193 2.228,-2.193 0.629,0 1.048,0.14 1.502,0.498 l -0.436,0.734 c -0.341,-0.245 -0.699,-0.376 -1.093,-0.376 -0.725,0.009 -1.258,0.533 -1.258,1.337 0,0.804 0.533,1.328 1.258,1.337 0.394,0 0.752,-0.131 1.093,-0.376 l 0.436,0.734 c -0.454,0.358 -0.873,0.498 -1.502,0.498 -1.346,0 -2.228,-0.926 -2.228,-2.193 m 11.707,2.193 c -0.524,0 -0.865,-0.245 -1.101,-0.612 v 0.507 h -0.9 v -4.176 h 0.909 v 2.341 c 0,0.691 0.297,1.075 0.891,1.075 0.184,0 0.376,-0.026 0.568,-0.105 l 0.28,0.856 C -6.231,3.934 -6.493,3.969 -6.677,3.969 M -31.018,3.532 c -0.437,0.288 -1.039,0.437 -1.703,0.437 -1.058,0 -1.739,-0.507 -1.739,-1.337 0,-0.681 0.507,-1.101 1.441,-1.232 l 0.429,-0.061 c 0.498,-0.07 0.733,-0.201 0.733,-0.437 0,-0.323 -0.332,-0.507 -0.952,-0.507 -0.629,0 -1.083,0.201 -1.389,0.437 l -0.428,-0.707 c 0.498,-0.367 1.127,-0.542 1.808,-0.542 1.206,0 1.905,0.568 1.905,1.363 0,0.734 -0.55,1.118 -1.459,1.249 L -32.8,2.257 c -0.393,0.052 -0.708,0.13 -0.708,0.41 0,0.306 0.297,0.489 0.795,0.489 0.533,0 1.049,-0.201 1.302,-0.358 z m 11.716,0.437 c -0.524,0 -0.865,-0.245 -1.1,-0.612 v 0.507 h -0.9 v -4.176 h 0.908 v 2.341 c 0,0.691 0.297,1.075 0.891,1.075 0.184,0 0.376,-0.026 0.568,-0.105 l 0.28,0.856 c -0.201,0.079 -0.463,0.114 -0.647,0.114 m -7.749,-0.105 h -1.485 v 1.267 h -0.918 V 3.864 h -0.847 v -0.83 h 0.847 V 1.129 c 0,-0.969 0.376,-1.546 1.45,-1.546 0.394,0 0.848,0.122 1.136,0.323 l -0.262,0.778 c -0.271,-0.157 -0.568,-0.236 -0.804,-0.236 -0.454,0 -0.602,0.28 -0.602,0.699 v 1.887 h 1.485 z m -13.577,-4.176 v 2.621 c 0,0.987 -0.629,1.651 -1.643,1.66 -0.533,0.009 -1.083,-0.157 -1.468,-0.743 -0.288,0.463 -0.742,0.743 -1.38,0.743 -0.446,0 -0.882,-0.131 -1.223,-0.62 v 0.515 h -0.909 v -4.176 h 0.917 v 2.315 c 0,0.725 0.402,1.11 1.023,1.11 0.603,0 0.908,-0.393 0.908,-1.101 v -2.324 h 0.918 v 2.315 c 0,0.725 0.419,1.11 1.022,1.11 0.62,0 0.917,-0.393 0.917,-1.101 v -2.324 z"
               id="path148"
               inkscape:connector-curvature="0"
               style="fill:#231f20" /></g><g
             transform="matrix(1.25,0,0,-1.25,1103.2,710.77)"
             id="g154"><path
               d="M 0,0 V 0.61 H -0.159 L -0.343,0.191 -0.526,0.61 h -0.16 V 0 h 0.113 v 0.46 l 0.172,-0.397 h 0.117 l 0.172,0.398 V 0 Z m -1.009,0 v 0.506 h 0.204 v 0.103 h -0.52 V 0.506 h 0.204 V 0 Z"
               id="path152"
               inkscape:connector-curvature="0"
               style="fill:#f79410" /></g><path
             d="m 1080.6,714.05 h -17.202 v -30.915 h 17.202 z"
             id="path156"
             inkscape:connector-curvature="0"
             style="fill:#ff5f00" /><g
             transform="matrix(1.25,0,0,-1.25,1064.5,698.59)"
             id="g160"><path
               d="m 0,0 c 0,5.017 2.349,9.486 6.007,12.366 -2.675,2.106 -6.051,3.363 -9.72,3.363 -8.686,0 -15.727,-7.042 -15.727,-15.729 0,-8.687 7.041,-15.729 15.727,-15.729 3.669,0 7.045,1.257 9.72,3.363 C 2.349,-9.486 0,-5.017 0,0"
               id="path158"
               inkscape:connector-curvature="0"
               style="fill:#eb001b" /></g><g
             transform="matrix(1.25,0,0,-1.25,1103.8,698.59)"
             id="g164"><path
               d="m 0,0 c 0,-8.687 -7.041,-15.729 -15.727,-15.729 -3.669,0 -7.045,1.257 -9.721,3.363 3.659,2.88 6.008,7.349 6.008,12.366 0,5.017 -2.349,9.486 -6.008,12.366 2.676,2.106 6.052,3.363 9.721,3.363 C -7.041,15.729 0,8.687 0,0"
               id="path162"
               inkscape:connector-curvature="0"
               style="fill:#f79e1b" /></g></g></g></g></g></svg>