<?xml version="1.0" standalone="yes"?>
<svg version="1.1" xmlns="http://www.w3.org/2000/svg" xmlns:xlink="http://www.w3.org/1999/xlink"
     xmlns:ev="http://www.w3.org/2001/xml-events" width="350" height="350">
    <path style="fill:#000000; stroke:none;"
          d="M10 10L10 80L80 80L80 10L10 10M100 10L100 20L90 20L90 40L100 40L100 50L110 50L110 30L120 30L120 10L100 10M150 10L150 20L130 20L130 50L140 50L140 40L150 40L150 50L160 50L160 60L150 60L150 80L140 80L140 70L130 70L130 60L120 60L120 70L110 70L110 90L100 90L100 100L90 100L90 110L110 110L110 90L120 90L120 70L130 70L130 80L140 80L140 90L130 90L130 100L120 100L120 110L130 110L130 130L150 130L150 120L160 120L160 130L170 130L170 120L160 120L160 110L170 110L170 100L180 100L180 90L190 90L190 110L180 110L180 120L190 120L190 140L170 140L170 150L160 150L160 140L140 140L140 160L130 160L130 170L150 170L150 180L130 180L130 190L120 190L120 180L110 180L110 170L120 170L120 150L130 150L130 140L120 140L120 150L110 150L110 130L90 130L90 120L80 120L80 110L70 110L70 120L80 120L80 130L70 130L70 140L90 140L90 150L100 150L100 180L110 180L110 200L120 200L120 210L100 210L100 190L70 190L70 180L90 180L90 170L70 170L70 160L80 160L80 150L60 150L60 130L50 130L50 140L40 140L40 120L60 120L60 110L50 110L50 90L20 90L20 100L10 100L10 130L30 130L30 150L20 150L20 140L10 140L10 160L20 160L20 170L10 170L10 180L20 180L20 190L30 190L30 200L20 200L20 210L30 210L30 220L10 220L10 230L30 230L30 240L20 240L20 250L10 250L10 260L20 260L20 250L30 250L30 240L40 240L40 260L50 260L50 240L60 240L60 260L80 260L80 250L90 250L90 270L100 270L100 280L90 280L90 290L100 290L100 280L120 280L120 270L130 270L130 290L110 290L110 300L130 300L130 310L100 310L100 300L90 300L90 330L100 330L100 340L110 340L110 330L120 330L120 340L190 340L190 330L200 330L200 320L190 320L190 310L200 310L200 290L190 290L190 310L180 310L180 320L170 320L170 330L150 330L150 320L160 320L160 310L170 310L170 290L180 290L180 280L220 280L220 300L210 300L210 330L220 330L220 320L230 320L230 310L240 310L240 300L320 300L320 310L340 310L340 300L320 300L320 290L340 290L340 280L320 280L320 270L330 270L330 260L340 260L340 220L330 220L330 230L320 230L320 210L340 210L340 200L330 200L330 180L340 180L340 160L330 160L330 180L320 180L320 140L340 140L340 110L320 110L320 140L310 140L310 120L300 120L300 110L290 110L290 100L260 100L260 120L250 120L250 110L240 110L240 100L230 100L230 90L240 90L240 60L220 60L220 10L210 10L210 30L200 30L200 20L190 20L190 10L180 10L180 20L190 20L190 30L160 30L160 40L150 40L150 20L160 20L160 10L150 10M230 10L230 20L240 20L240 30L230 30L230 50L240 50L240 30L260 30L260 20L240 20L240 10L230 10M270 10L270 80L340 80L340 10L270 10M70 20L70 70L20 70L20 20L70 20M330 20L330 70L280 70L280 20L330 20M30 30L30 60L60 60L60 30L30 30M200 30L200 40L210 40L210 60L200 60L200 70L210 70L210 90L200 90L200 70L190 70L190 80L180 80L180 70L190 70L190 50L170 50L170 40L190 40L190 30L200 30M290 30L290 60L320 60L320 30L290 30M250 40L250 60L260 60L260 40L250 40M90 70L90 80L100 80L100 70L90 70M170 70L170 100L160 100L160 90L150 90L150 80L160 80L160 70L170 70M230 70L230 90L220 90L220 70L230 70M250 70L250 80L260 80L260 70L250 70M60 90L60 100L80 100L80 90L60 90M310 90L310 100L330 100L330 90L310 90M140 100L140 110L150 110L150 120L140 120L140 110L130 110L130 100L140 100M220 100L220 110L210 110L210 120L230 120L230 110L240 110L240 120L250 120L250 140L240 140L240 150L260 150L260 140L270 140L270 130L260 130L260 120L270 120L270 110L290 110L290 120L300 120L300 130L290 130L290 120L270 120L270 130L280 130L280 140L270 140L270 150L260 150L260 160L270 160L270 190L310 190L310 180L300 180L300 170L290 170L290 180L280 180L280 160L290 160L290 140L300 140L300 150L310 150L310 160L300 160L300 170L310 170L310 180L320 180L320 190L310 190L310 200L320 200L320 210L310 210L310 220L300 220L300 240L290 240L290 230L280 230L280 220L270 220L270 210L260 210L260 230L270 230L270 240L280 240L280 250L260 250L260 240L250 240L250 230L230 230L230 240L240 240L240 250L250 250L250 280L240 280L240 250L220 250L220 270L210 270L210 260L200 260L200 270L180 270L180 280L170 280L170 290L150 290L150 300L160 300L160 310L150 310L150 300L130 300L130 290L140 290L140 280L150 280L150 260L140 260L140 240L160 240L160 230L180 230L180 240L160 240L160 250L170 250L170 270L180 270L180 250L190 250L190 230L200 230L200 220L210 220L210 210L200 210L200 200L180 200L180 210L190 210L190 220L180 220L180 210L170 210L170 200L160 200L160 210L140 210L140 190L150 190L150 180L160 180L160 190L170 190L170 180L180 180L180 170L190 170L190 160L170 160L170 150L190 150L190 160L200 160L200 120L190 120L190 110L210 110L210 100L220 100M40 110L40 120L20 120L20 110L40 110M220 130L220 160L200 160L200 170L190 170L190 180L180 180L180 190L190 190L190 180L210 180L210 190L220 190L220 180L230 180L230 160L240 160L240 190L250 190L250 200L240 200L240 210L260 210L260 200L270 200L270 210L280 210L280 220L290 220L290 210L300 210L300 200L290 200L290 210L280 210L280 200L270 200L270 190L250 190L250 180L260 180L260 170L250 170L250 160L240 160L240 150L230 150L230 140L240 140L240 130L220 130M40 150L40 160L30 160L30 150L40 150M60 160L60 170L50 170L50 180L60 180L60 190L40 190L40 170L50 170L50 160L60 160M30 170L30 180L20 180L20 170L30 170M220 170L220 180L210 180L210 170L220 170M80 200L80 210L70 210L70 220L80 220L80 230L70 230L70 240L80 240L80 250L70 250L70 240L60 240L60 220L50 220L50 240L40 240L40 230L30 230L30 220L50 220L50 210L30 210L30 200L80 200M220 210L220 230L230 230L230 210L220 210M100 220L100 230L110 230L110 220L120 220L120 230L130 230L130 220L150 220L150 230L130 230L130 240L120 240L120 230L110 230L110 240L100 240L100 250L110 250L110 270L100 270L100 250L90 250L90 240L100 240L100 230L90 230L90 220L100 220M200 240L200 250L220 250L220 240L200 240M320 240L320 250L330 250L330 260L320 260L320 270L310 270L310 260L320 260L320 250L310 250L310 240L320 240M130 250L130 260L120 260L120 250L130 250M150 250L150 260L160 260L160 250L150 250M290 260L290 290L260 290L260 260L290 260M10 270L10 340L80 340L80 270L10 270M270 270L270 280L280 280L280 270L270 270M70 280L70 330L20 330L20 280L70 280M30 290L30 320L60 320L60 290L30 290M230 300L230 310L220 310L220 300L230 300M250 310L250 320L240 320L240 340L250 340L250 330L260 330L260 340L290 340L290 330L300 330L300 320L310 320L310 310L300 310L300 320L270 320L270 310L250 310M110 320L110 330L100 330L100 320L110 320M130 320L130 330L120 330L120 320L130 320M330 320L330 330L340 330L340 320L330 320M310 330L310 340L320 340L320 330L310 330z"/>
</svg>
