<?xml version="1.0" standalone="yes"?>
<svg version="1.1" xmlns="http://www.w3.org/2000/svg" xmlns:xlink="http://www.w3.org/1999/xlink"
     xmlns:ev="http://www.w3.org/2001/xml-events" width="390" height="390">
    <path style="fill:#000000; stroke:none;"
          d="M10 10L10 80L80 80L80 10L10 10M90 10L90 20L100 20L100 30L110 30L110 40L100 40L100 50L90 50L90 80L100 80L100 100L90 100L90 90L20 90L20 100L10 100L10 110L20 110L20 120L30 120L30 140L10 140L10 150L30 150L30 160L20 160L20 170L10 170L10 190L20 190L20 200L10 200L10 210L30 210L30 200L40 200L40 190L60 190L60 180L80 180L80 190L70 190L70 200L80 200L80 190L90 190L90 200L100 200L100 210L90 210L90 230L70 230L70 220L80 220L80 210L70 210L70 220L50 220L50 230L40 230L40 220L30 220L30 230L40 230L40 240L30 240L30 280L40 280L40 270L50 270L50 280L60 280L60 290L70 290L70 300L90 300L90 370L100 370L100 350L110 350L110 360L130 360L130 350L140 350L140 340L150 340L150 330L160 330L160 360L140 360L140 380L160 380L160 360L170 360L170 350L190 350L190 330L200 330L200 340L220 340L220 350L210 350L210 360L220 360L220 380L230 380L230 360L220 360L220 350L230 350L230 340L240 340L240 330L220 330L220 320L210 320L210 310L200 310L200 320L180 320L180 340L170 340L170 310L160 310L160 290L170 290L170 300L180 300L180 310L190 310L190 300L180 300L180 290L170 290L170 270L180 270L180 250L190 250L190 240L200 240L200 260L210 260L210 270L230 270L230 280L220 280L220 290L210 290L210 280L190 280L190 290L210 290L210 300L230 300L230 320L240 320L240 310L250 310L250 340L270 340L270 350L280 350L280 370L270 370L270 380L280 380L280 370L300 370L300 360L290 360L290 350L320 350L320 360L310 360L310 370L320 370L320 380L380 380L380 330L370 330L370 320L380 320L380 290L370 290L370 310L360 310L360 330L340 330L340 320L350 320L350 310L340 310L340 290L330 290L330 280L350 280L350 290L360 290L360 270L350 270L350 260L360 260L360 250L370 250L370 260L380 260L380 250L370 250L370 240L380 240L380 220L370 220L370 240L360 240L360 250L350 250L350 240L330 240L330 250L350 250L350 260L340 260L340 270L330 270L330 260L320 260L320 230L330 230L330 220L340 220L340 230L360 230L360 210L330 210L330 200L320 200L320 180L340 180L340 190L360 190L360 200L380 200L380 190L360 190L360 180L380 180L380 150L370 150L370 140L380 140L380 130L370 130L370 120L350 120L350 100L340 100L340 90L320 90L320 100L310 100L310 110L290 110L290 100L300 100L300 50L290 50L290 40L300 40L300 30L290 30L290 20L280 20L280 10L270 10L270 30L260 30L260 20L240 20L240 30L230 30L230 10L210 10L210 30L200 30L200 20L170 20L170 10L160 10L160 20L170 20L170 60L180 60L180 70L170 70L170 80L160 80L160 60L140 60L140 50L150 50L150 40L160 40L160 30L140 30L140 20L150 20L150 10L140 10L140 20L130 20L130 10L90 10M310 10L310 80L380 80L380 10L310 10M70 20L70 70L20 70L20 20L70 20M120 20L120 30L110 30L110 20L120 20M370 20L370 70L320 70L320 20L370 20M30 30L30 60L60 60L60 30L30 30M140 30L140 50L130 50L130 60L100 60L100 50L110 50L110 40L130 40L130 30L140 30M200 30L200 40L210 40L210 50L200 50L200 40L190 40L190 50L180 50L180 30L200 30M260 30L260 40L270 40L270 50L290 50L290 60L270 60L270 50L250 50L250 60L260 60L260 70L270 70L270 80L280 80L280 70L290 70L290 80L280 80L280 90L270 90L270 100L280 100L280 110L270 110L270 130L280 130L280 140L290 140L290 120L300 120L300 140L290 140L290 150L310 150L310 140L320 140L320 130L330 130L330 120L340 120L340 130L360 130L360 150L370 150L370 170L350 170L350 180L340 180L340 170L320 170L320 160L330 160L330 150L310 150L310 170L300 170L300 180L310 180L310 210L330 210L330 220L310 220L310 280L320 280L320 270L330 270L330 280L320 280L320 290L300 290L300 280L290 280L290 310L280 310L280 320L290 320L290 340L270 340L270 330L260 330L260 310L250 310L250 300L240 300L240 290L230 290L230 280L240 280L240 270L230 270L230 230L220 230L220 240L210 240L210 230L190 230L190 240L180 240L180 230L190 230L190 200L180 200L180 190L160 190L160 180L150 180L150 170L140 170L140 190L150 190L150 210L130 210L130 220L150 220L150 230L130 230L130 240L120 240L120 250L110 250L110 260L120 260L120 270L110 270L110 260L90 260L90 270L100 270L100 280L130 280L130 290L140 290L140 310L150 310L150 320L140 320L140 330L130 330L130 340L120 340L120 350L110 350L110 330L100 330L100 320L130 320L130 310L120 310L120 300L110 300L110 290L100 290L100 300L90 300L90 290L70 290L70 280L60 280L60 270L50 270L50 260L60 260L60 240L80 240L80 250L90 250L90 230L100 230L100 210L110 210L110 190L100 190L100 180L110 180L110 170L100 170L100 150L90 150L90 160L80 160L80 170L60 170L60 180L50 180L50 170L30 170L30 190L20 190L20 170L30 170L30 160L50 160L50 170L60 170L60 150L50 150L50 140L60 140L60 150L70 150L70 140L90 140L90 130L100 130L100 120L90 120L90 110L100 110L100 100L110 100L110 80L100 80L100 70L110 70L110 80L120 80L120 70L130 70L130 90L140 90L140 100L160 100L160 110L150 110L150 120L170 120L170 130L180 130L180 150L190 150L190 170L200 170L200 180L210 180L210 170L220 170L220 180L210 180L210 190L200 190L200 200L210 200L210 210L200 210L200 220L220 220L220 210L230 210L230 190L240 190L240 180L230 180L230 170L240 170L240 160L230 160L230 130L260 130L260 110L270 110L270 100L260 100L260 90L270 90L270 80L260 80L260 70L250 70L250 80L240 80L240 90L250 90L250 100L240 100L240 90L230 90L230 100L210 100L210 90L230 90L230 80L220 80L220 70L230 70L230 60L240 60L240 50L220 50L220 40L240 40L240 50L250 50L250 30L260 30M290 30L290 40L280 40L280 30L290 30M330 30L330 60L360 60L360 30L330 30M200 60L200 70L210 70L210 80L200 80L200 110L210 110L210 120L220 120L220 110L250 110L250 120L220 120L220 130L210 130L210 120L200 120L200 130L190 130L190 120L180 120L180 110L170 110L170 80L180 80L180 70L190 70L190 60L200 60M240 60L240 70L230 70L230 80L240 80L240 70L250 70L250 60L240 60M150 70L150 80L140 80L140 70L150 70M190 70L190 80L180 80L180 90L190 90L190 80L200 80L200 70L190 70M120 90L120 110L110 110L110 120L120 120L120 110L130 110L130 140L120 140L120 130L110 130L110 140L100 140L100 150L110 150L110 140L120 140L120 160L110 160L110 170L130 170L130 160L140 160L140 140L150 140L150 150L160 150L160 160L150 160L150 170L160 170L160 160L170 160L170 180L180 180L180 190L200 190L200 180L180 180L180 160L170 160L170 140L150 140L150 130L140 130L140 110L130 110L130 90L120 90M370 90L370 110L380 110L380 90L370 90M60 100L60 110L40 110L40 120L30 120L30 110L40 110L40 100L60 100M80 100L80 110L70 110L70 100L80 100M340 100L340 110L320 110L320 100L340 100M190 110L190 120L200 120L200 110L190 110M80 120L80 130L60 130L60 120L80 120M260 130L260 140L240 140L240 150L250 150L250 170L240 170L240 180L250 180L250 190L270 190L270 220L290 220L290 230L280 230L280 240L270 240L270 250L280 250L280 260L260 260L260 250L250 250L250 240L260 240L260 230L250 230L250 240L240 240L240 250L250 250L250 260L240 260L240 270L250 270L250 280L240 280L240 290L250 290L250 280L270 280L270 270L300 270L300 260L290 260L290 250L300 250L300 210L280 210L280 200L300 200L300 180L290 180L290 170L280 170L280 160L290 160L290 150L280 150L280 140L270 140L270 130L260 130M40 140L40 150L30 150L30 140L40 140M210 140L210 150L220 150L220 160L210 160L210 150L200 150L200 140L210 140M70 150L70 160L80 160L80 150L70 150M280 150L280 160L270 160L270 170L280 170L280 180L290 180L290 190L280 190L280 180L270 180L270 170L260 170L260 180L250 180L250 170L260 170L260 150L280 150M120 190L120 200L130 200L130 190L120 190M170 200L170 210L180 210L180 220L160 220L160 200L170 200M250 200L250 220L260 220L260 200L250 200M10 220L10 230L20 230L20 220L10 220M110 220L110 230L130 230L130 220L110 220M230 220L230 230L240 230L240 220L230 220M170 230L170 270L160 270L160 290L150 290L150 270L130 270L130 250L140 250L140 240L160 240L160 230L170 230M100 240L100 250L110 250L110 240L100 240M70 250L70 260L60 260L60 270L70 270L70 280L90 280L90 270L70 270L70 260L80 260L80 250L70 250M140 250L140 260L150 260L150 250L140 250M220 250L220 260L210 260L210 250L220 250M10 260L10 300L20 300L20 260L10 260M260 260L260 270L250 270L250 260L260 260M370 270L370 280L380 280L380 270L370 270M30 290L30 300L40 300L40 290L30 290M260 290L260 310L280 310L280 300L270 300L270 290L260 290M330 300L330 330L300 330L300 300L330 300M10 310L10 380L80 380L80 310L10 310M310 310L310 320L320 320L320 310L310 310M70 320L70 370L20 370L20 320L70 320M210 320L210 330L200 330L200 320L210 320M30 330L30 360L60 360L60 330L30 330M360 340L360 350L370 350L370 370L320 370L320 360L330 360L330 350L340 350L340 340L360 340M240 350L240 380L260 380L260 370L250 370L250 360L260 360L260 350L240 350M180 360L180 370L170 370L170 380L200 380L200 360L180 360z"/>
</svg>
